<?xml version="1.0" standalone="no"?>
<!DOCTYPE svg PUBLIC "-//W3C//DTD SVG 20010904//EN"
 "http://www.w3.org/TR/2001/REC-SVG-20010904/DTD/svg10.dtd">
<svg version="1.0" xmlns="http://www.w3.org/2000/svg"
 width="1105.000000pt" height="1105.000000pt" viewBox="0 0 1105.000000 1105.000000"
 preserveAspectRatio="xMidYMid meet">
<metadata>
Created by potrace 1.14, written by Peter Selinger 2001-2017
</metadata>
<g transform="translate(0.000000,1105.000000) scale(0.100000,-0.100000)"
fill="#000000" stroke="none">
<path d="M5248 11045 c-2 -1 -46 -5 -99 -9 -141 -9 -196 -15 -384 -42 -136
-19 -440 -77 -515 -98 -8 -2 -53 -14 -100 -26 -410 -104 -857 -285 -1280 -518
-59 -33 -94 -54 -270 -162 -208 -129 -555 -395 -754 -580 -183 -169 -432 -433
-552 -585 -21 -27 -42 -52 -45 -55 -17 -15 -168 -223 -247 -340 -296 -439
-535 -935 -690 -1435 -59 -187 -124 -451 -157 -640 -20 -107 -45 -278 -51
-335 -1 -19 -5 -53 -8 -75 -5 -36 -11 -103 -22 -249 -5 -69 -5 -602 0 -646 3
-19 7 -73 10 -120 4 -47 8 -103 11 -125 13 -108 17 -142 20 -165 3 -14 11 -70
20 -125 8 -55 17 -111 20 -125 3 -14 9 -48 14 -76 16 -83 61 -287 70 -314 5
-14 19 -61 31 -105 108 -393 282 -816 489 -1190 l39 -70 -18 -60 c-10 -33 -39
-139 -65 -235 -45 -168 -68 -254 -141 -515 -18 -66 -42 -154 -53 -195 -11 -41
-36 -133 -56 -205 -20 -71 -44 -161 -55 -200 -10 -38 -37 -137 -60 -220 -22
-82 -56 -206 -75 -275 -189 -687 -246 -898 -251 -912 -4 -12 0 -16 13 -13 31
6 294 75 368 96 39 11 81 22 95 25 14 3 48 11 75 19 41 12 593 157 645 170 8
2 77 20 153 40 76 20 147 38 157 40 10 2 43 11 72 19 47 14 569 152 608 161 8
2 68 17 133 34 64 17 170 45 235 62 64 16 168 44 231 60 l113 31 157 -79 c368
-187 805 -349 1151 -428 126 -29 302 -67 330 -71 19 -2 55 -9 80 -14 25 -5 63
-11 85 -14 22 -3 94 -12 160 -20 339 -44 826 -52 1135 -21 25 3 65 7 90 10 74
7 143 15 180 21 19 3 46 7 60 9 327 47 697 139 1005 248 126 45 299 114 367
146 37 17 70 31 73 31 9 0 354 174 395 199 19 11 42 24 50 28 97 46 597 379
650 433 3 3 39 32 80 64 41 32 80 64 85 70 6 7 20 19 33 28 63 43 353 323 496
478 139 151 422 505 458 574 6 11 14 23 18 26 4 3 28 39 55 80 26 41 62 98 80
125 92 142 243 424 325 605 28 63 57 129 65 145 71 157 225 601 250 721 2 10
17 75 34 144 37 153 36 147 71 350 28 163 32 191 45 320 4 36 9 76 11 90 25
159 25 841 -1 1035 -2 17 -7 59 -10 95 -6 77 -29 233 -51 350 -8 47 -18 99
-21 115 -10 62 -63 283 -88 370 -14 50 -27 99 -30 110 -14 61 -116 352 -172
490 -53 134 -240 524 -301 630 -191 332 -456 705 -662 930 -25 27 -70 76 -100
109 -121 132 -425 425 -468 450 -8 4 -22 16 -31 25 -9 9 -39 34 -66 56 -28 22
-55 45 -61 50 -7 6 -32 25 -55 43 -24 18 -66 50 -94 71 -112 85 -490 331 -510
331 -2 0 -21 11 -41 25 -41 28 -374 196 -474 239 -36 16 -83 37 -105 46 -67
30 -314 121 -425 157 -183 59 -464 132 -605 157 -16 3 -41 8 -55 11 -185 37
-403 65 -665 84 -91 7 -650 12 -657 6z"/>
</g>
</svg>
